<?xml version="1.0" encoding="UTF-8" standalone="no"?>
<!-- Created with Inkscape (http://www.inkscape.org/) -->

<svg
   width="20.651728mm"
   height="6.1654015mm"
   viewBox="0 0 20.651728 6.1654015"
   version="1.1"
   id="svg1"
   inkscape:version="1.3 (0e150ed6c4, 2023-07-21)"
   sodipodi:docname="logo_desenvolvimento.svg"
   xmlns:inkscape="http://www.inkscape.org/namespaces/inkscape"
   xmlns:sodipodi="http://sodipodi.sourceforge.net/DTD/sodipodi-0.dtd"
   xmlns="http://www.w3.org/2000/svg"
   xmlns:svg="http://www.w3.org/2000/svg">
  <sodipodi:namedview
     id="namedview1"
     pagecolor="#505050"
     bordercolor="#eeeeee"
     borderopacity="1"
     inkscape:showpageshadow="0"
     inkscape:pageopacity="0"
     inkscape:pagecheckerboard="0"
     inkscape:deskcolor="#505050"
     inkscape:document-units="mm"
     inkscape:zoom="8.2747365"
     inkscape:cx="386.35671"
     inkscape:cy="179.28063"
     inkscape:window-width="1920"
     inkscape:window-height="1017"
     inkscape:window-x="-8"
     inkscape:window-y="-8"
     inkscape:window-maximized="1"
     inkscape:current-layer="layer1" />
  <defs
     id="defs1" />
  <g
     inkscape:label="Camada 1"
     inkscape:groupmode="layer"
     id="layer1"
     transform="translate(-88.414301,-8.7457349)">
    <g
       id="g12"
       style="fill:#ffffff;fill-opacity:1"
       inkscape:export-filename="sala15_papelaria_00ADB5.svg"
       inkscape:export-xdpi="96"
       inkscape:export-ydpi="96"
       transform="translate(-60.046922,-51.413463)">
      <path
         id="path8"
         style="fill:#ffffff;fill-opacity:1;stroke-width:1.73436"
         d="m 151.54372,60.159363 a 3.0827031,3.0827031 0 0 0 -3.0825,3.082499 3.0827031,3.0827031 0 0 0 3.0825,3.082499 3.0827031,3.0827031 0 0 0 3.08302,-3.082499 3.0827031,3.0827031 0 0 0 -3.08302,-3.082499 z m 1.00252,1.547709 h 0.43099 c 0.57,0.0082 0.87941,0.0166 0.92862,0.02481 0.0656,0.0082 0.10448,0.01819 0.11679,0.03049 0.0123,0.0123 0.0186,0.04959 0.0186,0.111104 0,0.05331 -0.0163,0.108475 -0.0491,0.165881 -0.0328,0.05741 -0.10897,0.161953 -0.22789,0.313676 -0.25425,0.323959 -0.47751,0.612886 -0.67025,0.867131 -0.0492,0.06561 -0.10277,0.119191 -0.16019,0.160197 -0.0574,0.04101 -0.15564,0.09407 -0.29507,0.15968 -0.0533,0.02871 -0.18046,0.09017 -0.38138,0.184485 -0.20093,0.09432 -0.35065,0.166281 -0.44907,0.215491 -0.76273,0.364964 -1.25286,0.59453 -1.47019,0.688846 -0.21324,0.09842 -0.35035,0.147795 -0.41186,0.147795 -0.17634,0 -0.34864,-0.102438 -0.51677,-0.307475 -0.16812,-0.209137 -0.28526,-0.465491 -0.35088,-0.768945 -0.008,-0.03281 -0.0124,-0.08429 -0.0124,-0.153996 0,-0.205036 0.0431,-0.346349 0.12919,-0.424263 0.0287,-0.02871 0.24404,-0.137446 0.64596,-0.326079 0.38136,-0.17223 0.58255,-0.268367 0.60306,-0.288871 0.0287,-0.0205 0.28502,-0.143943 0.76895,-0.369486 0.48388,-0.229641 0.76441,-0.358351 0.84232,-0.387057 0.0779,-0.02871 0.24811,-0.04341 0.51056,-0.04341 z m 0.37518,0.196887 c -0.12302,0 -0.18449,0.0063 -0.18449,0.0186 0,0.0123 0.0268,0.05328 0.0801,0.12299 0.041,0.05741 0.0925,0.159844 0.15399,0.307474 0.0656,0.143526 0.10868,0.256467 0.1292,0.338481 0.0164,0.06971 0.0369,0.104386 0.0615,0.104386 0.0287,-0.0082 0.10222,-0.08595 0.22118,-0.233577 0.11892,-0.151727 0.17828,-0.264668 0.17828,-0.338481 0,-0.123022 -0.041,-0.215475 -0.12299,-0.276985 -0.0369,-0.02871 -0.20923,-0.04289 -0.51676,-0.04289 z m -0.64544,0.0062 c -0.0861,0 -0.19275,0.02889 -0.31988,0.0863 -0.041,0.0205 -0.25428,0.116637 -0.63975,0.288871 -0.29936,0.135324 -0.46167,0.215174 -0.48628,0.239779 -0.0287,0.02461 -0.004,0.06558 0.0739,0.12299 l 0.11058,0.0925 0.154,-0.0615 c 0.25015,-0.114821 0.5023,-0.233546 0.75654,-0.356568 l 0.60307,-0.295589 -0.0739,-0.0615 c -0.0492,-0.03691 -0.10856,-0.05529 -0.17828,-0.05529 z m 0.3731,0.281637 c -0.002,-2.56e-4 -0.003,5.23e-4 -0.004,0.0016 -0.0205,0.0041 -0.26901,0.116557 -0.74466,0.337964 -0.47569,0.22144 -0.72154,0.340681 -0.73794,0.357084 -0.004,0.0041 -0.006,0.0078 -0.006,0.01189 0,0.03281 0.0289,0.116858 0.0863,0.252181 0.0615,0.135323 0.0925,0.205188 0.0925,0.209289 0,0.02871 0.008,0.04341 0.0243,0.04341 0.0287,0 0.28502,-0.110839 0.76894,-0.332279 0.48799,-0.22144 0.74434,-0.342782 0.76895,-0.363285 0.004,-0.0041 0.006,-0.0078 0.006,-0.01189 0,-0.03281 -0.0205,-0.09847 -0.0615,-0.196887 -0.0411,-0.09842 -0.0784,-0.172483 -0.1111,-0.221692 h 5.2e-4 c -0.0205,-0.02871 -0.0394,-0.0513 -0.0558,-0.0677 -0.0123,-0.0123 -0.021,-0.01887 -0.0264,-0.01964 z m -2.15077,0.512113 c -0.0369,0 -0.0558,0.0079 -0.0558,0.02429 0,0.01641 0.0373,0.06158 0.1111,0.135392 0.13533,0.127123 0.24406,0.28314 0.32608,0.467672 0.0861,0.180433 0.13077,0.354319 0.13487,0.522449 0,0.123022 0.0126,0.190786 0.0372,0.203088 0.004,0.0041 0.01,0.0062 0.0181,0.0062 0.0328,0 0.068,-0.02837 0.1049,-0.08578 0.041,-0.06151 0.0615,-0.119292 0.0615,-0.1726 0,-0.05331 -0.0247,-0.159952 -0.0739,-0.319877 -0.0451,-0.164029 -0.086,-0.280653 -0.12299,-0.350366 -0.0287,-0.06151 -0.0822,-0.133479 -0.1602,-0.215491 -0.0777,-0.0859 -0.1389,-0.141187 -0.18397,-0.165881 h -5.1e-4 c -0.0655,-0.03266 -0.13089,-0.04909 -0.19637,-0.04909 z m -0.31988,0.196371 c -0.0779,0 -0.16616,0.02049 -0.26458,0.0615 -0.12713,0.05331 -0.19069,0.0927 -0.19069,0.117305 0,0.02461 0.0284,0.06138 0.0858,0.110588 0.12302,0.11482 0.23386,0.272419 0.33228,0.473356 0.0984,0.200936 0.1541,0.383741 0.1664,0.54777 0.0123,0.135323 0.0265,0.203088 0.0429,0.203088 h 0.006 c 0.004,-0.0041 0.0145,-0.0083 0.031,-0.0124 0.0205,-0.0082 0.0452,-0.0166 0.0739,-0.02481 0.0287,-0.0123 0.0534,-0.02229 0.0739,-0.03049 0.11482,-0.04101 0.19047,-0.09038 0.22737,-0.147794 0.041,-0.05741 0.0615,-0.145665 0.0615,-0.264584 0,-0.192734 -0.0452,-0.383425 -0.13539,-0.572058 -0.0902,-0.188634 -0.20265,-0.325745 -0.33797,-0.411861 -0.0451,-0.03281 -0.10239,-0.04961 -0.17208,-0.04961 z m 2.7125,0.0615 c -0.0328,0 -0.14785,0.04518 -0.34469,0.135392 -0.0656,0.02871 -0.19272,0.08648 -0.38137,0.172599 -0.18453,0.08611 -0.29696,0.139176 -0.33796,0.15968 l -0.41238,0.184485 -0.0124,0.135392 c -0.008,0.08612 2e-4,0.129192 0.0248,0.129192 0.0123,0 0.23554,-0.09614 0.67025,-0.288872 0.43468,-0.196835 0.65636,-0.295589 0.66456,-0.295589 0.0369,-0.0123 0.0737,-0.04697 0.11058,-0.104386 0.0369,-0.05741 0.0553,-0.113092 0.0553,-0.166398 0,-0.04101 -0.0121,-0.0615 -0.0367,-0.0615 z m -3.46284,0.258382 c -0.041,0 -0.0804,0.0189 -0.11731,0.05581 -0.0492,0.05331 -0.0734,0.135264 -0.0734,0.24598 0,0.16403 0.0468,0.348419 0.14108,0.553455 0.0984,0.200936 0.21346,0.342249 0.34468,0.424263 0.0861,0.05331 0.15177,0.0801 0.19689,0.0801 0.0492,0 0.0944,-0.02678 0.13539,-0.0801 0.041,-0.05331 0.0615,-0.131063 0.0615,-0.233577 0,-0.168131 -0.0494,-0.352519 -0.1478,-0.553455 -0.0984,-0.205036 -0.21135,-0.344766 -0.33848,-0.418579 -0.0861,-0.04921 -0.15337,-0.0739 -0.20257,-0.0739 z" />
      <path
         d="m 156.41069,63.113764 q -0.30735,0 -0.55322,-0.06976 -0.24588,-0.07386 -0.4698,-0.25442 -0.0571,-0.04514 -0.0878,-0.10259 -0.0307,-0.05744 -0.0307,-0.1149 0,-0.09438 0.0702,-0.164142 0.0747,-0.07386 0.1844,-0.07386 0.0835,0 0.14929,0.04925 0.16684,0.127211 0.32929,0.192868 0.16685,0.06565 0.40834,0.06565 0.16245,0 0.29856,-0.04514 0.13611,-0.04925 0.21953,-0.127211 0.0834,-0.08207 0.0834,-0.18466 0,-0.123107 -0.079,-0.209282 -0.079,-0.08618 -0.24148,-0.143624 -0.16246,-0.06155 -0.41272,-0.09438 -0.23709,-0.03283 -0.41712,-0.09849 -0.18001,-0.06976 -0.30295,-0.172349 -0.11854,-0.106692 -0.18001,-0.246214 -0.0615,-0.143625 -0.0615,-0.320077 0,-0.266732 0.1449,-0.455496 0.14928,-0.188764 0.39954,-0.287249 0.25027,-0.09849 0.55322,-0.09849 0.2854,0 0.52688,0.08207 0.24587,0.07797 0.39955,0.201074 0.12732,0.09438 0.12732,0.217489 0,0.09028 -0.0747,0.164143 -0.0747,0.07386 -0.17562,0.07386 -0.0659,0 -0.11855,-0.03693 -0.0702,-0.05745 -0.18879,-0.106693 -0.11856,-0.05335 -0.25027,-0.08618 -0.13172,-0.03693 -0.24588,-0.03693 -0.18879,0 -0.32051,0.04514 -0.12733,0.04514 -0.19319,0.123106 -0.0659,0.07797 -0.0659,0.180557 0,0.123106 0.0747,0.205178 0.079,0.07797 0.22391,0.12721 0.1449,0.04514 0.34686,0.08207 0.26344,0.04514 0.46102,0.106692 0.20197,0.06155 0.33369,0.160039 0.13172,0.09438 0.19758,0.24211 0.0659,0.143625 0.0659,0.352907 0,0.266731 -0.15807,0.459599 -0.15806,0.192867 -0.4171,0.295456 -0.25466,0.102589 -0.55322,0.102589 z m 2.44766,-2.26927 -0.94838,2.084609 q -0.0307,0.07797 -0.0966,0.123108 -0.0614,0.04104 -0.13611,0.04104 -0.11855,0 -0.17563,-0.06155 -0.0571,-0.06155 -0.0571,-0.151832 0,-0.03693 0.0131,-0.07797 l 1.09328,-2.45393 q 0.0352,-0.08207 0.10537,-0.12721 0.0747,-0.04514 0.15807,-0.03693 0.079,0 0.14488,0.04514 0.0702,0.04104 0.10096,0.119003 l 1.08009,2.404687 q 0.0219,0.05335 0.0219,0.09849 0,0.110796 -0.079,0.176452 -0.0747,0.06565 -0.16685,0.06565 -0.079,0 -0.1449,-0.04514 -0.0614,-0.04514 -0.0966,-0.123107 l -0.94398,-2.055884 z m -0.81227,1.583975 0.24149,-0.471909 h 1.18547 l 0.0834,0.471909 z m 3.87024,0.164142 q 0.11415,0 0.18879,0.06976 0.079,0.06565 0.079,0.172349 0,0.10259 -0.079,0.17235 -0.0747,0.06565 -0.18879,0.06565 h -1.42696 q -0.11416,0 -0.19319,-0.06976 -0.0747,-0.07386 -0.0747,-0.180556 v -2.371858 q 0,-0.106693 0.079,-0.176454 0.079,-0.07386 0.20196,-0.07386 0.10538,0 0.18441,0.07386 0.0834,0.06976 0.0834,0.176454 v 2.211819 l -0.0966,-0.06976 z m 1.5871,-1.748117 -0.94838,2.084609 q -0.0307,0.07797 -0.0966,0.123108 -0.0614,0.04104 -0.13611,0.04104 -0.11855,0 -0.17563,-0.06155 -0.0571,-0.06155 -0.0571,-0.151832 0,-0.03693 0.0131,-0.07797 l 1.09327,-2.45393 q 0.0352,-0.08207 0.10537,-0.12721 0.0747,-0.04514 0.15806,-0.03693 0.079,0 0.14489,0.04514 0.0702,0.04104 0.10096,0.119003 l 1.08009,2.404687 q 0.0219,0.05335 0.0219,0.09849 0,0.110796 -0.079,0.176452 -0.0747,0.06565 -0.16685,0.06565 -0.079,0 -0.14489,-0.04514 -0.0614,-0.04514 -0.0966,-0.123107 l -0.94398,-2.055884 z m -0.81228,1.583975 0.24149,-0.471909 h 1.18547 l 0.0834,0.471909 z m 3.80646,0.644259 q -0.12294,0 -0.20197,-0.06976 -0.079,-0.07386 -0.079,-0.180556 v -2.068195 l 0.0615,0.09027 -0.32052,0.221592 q -0.0614,0.04514 -0.15367,0.04514 -0.10537,0 -0.18441,-0.07386 -0.079,-0.07386 -0.079,-0.176453 0,-0.131315 0.13611,-0.213386 l 0.63225,-0.393941 q 0.044,-0.02872 0.0966,-0.04104 0.0571,-0.01231 0.10537,-0.01231 0.12732,0 0.20197,0.07386 0.0747,0.06976 0.0747,0.176454 v 2.371858 q 0,0.106692 -0.0834,0.180556 -0.079,0.06976 -0.20635,0.06976 z m 1.40708,0.04104 q -0.16245,0 -0.34686,-0.04514 -0.1844,-0.04925 -0.30295,-0.139521 -0.0571,-0.04514 -0.0922,-0.114899 -0.0307,-0.07386 -0.0307,-0.139522 0,-0.06976 0.0615,-0.131314 0.0659,-0.06155 0.1844,-0.06155 0.079,0 0.19757,0.07797 0.0702,0.04104 0.15368,0.07386 0.0834,0.03283 0.17124,0.03283 0.21074,0 0.36442,-0.06976 0.15367,-0.07386 0.23709,-0.201075 0.0834,-0.12721 0.0834,-0.29956 0,-0.155935 -0.079,-0.266731 -0.0747,-0.110796 -0.20197,-0.17235 -0.12293,-0.06155 -0.26783,-0.06155 -0.13611,0 -0.23709,0.04104 -0.10096,0.04104 -0.18441,0.08618 -0.0834,0.04104 -0.16684,0.04104 -0.1449,0 -0.21514,-0.05744 -0.0702,-0.06155 -0.0878,-0.143625 -0.0176,-0.08207 -0.008,-0.147729 l 0.13611,-0.997165 q 0.0176,-0.08618 0.0878,-0.13952 0.0747,-0.05746 0.17563,-0.05746 h 1.26889 q 0.10537,0 0.17563,0.06565 0.0702,0.06565 0.0702,0.164142 0,0.09439 -0.0702,0.160039 -0.0702,0.06155 -0.17563,0.06155 h -1.13278 l 0.0483,-0.03693 -0.11855,0.833023 -0.0571,-0.155936 q 0.0264,-0.04104 0.11415,-0.07797 0.0878,-0.03693 0.20198,-0.06155 0.11415,-0.02872 0.22391,-0.02872 0.29418,0 0.52688,0.12721 0.2327,0.123107 0.36442,0.340595 0.13612,0.213386 0.13612,0.484221 0,0.307767 -0.14929,0.537566 -0.14928,0.2298 -0.4215,0.35701 -0.26783,0.123108 -0.63664,0.123108 z"
         id="path9"
         style="font-weight:bold;font-size:4.24467px;font-family:Quicksand;-inkscape-font-specification:'Quicksand, Bold';letter-spacing:-0.303603px;fill:#ffffff;fill-opacity:1;stroke-width:1.76861"
         aria-label="SALA 15" />
      <path
         d="m 156.07242,64.007662 q 0.22035,0 0.38886,0.110176 0.17174,0.106936 0.2722,0.298124 0.10045,0.187947 0.10045,0.434223 0,0.246275 -0.10045,0.437463 -0.10046,0.191188 -0.2722,0.301364 -0.17175,0.110176 -0.38562,0.110176 -0.11341,0 -0.21711,-0.0324 -0.10045,-0.03565 -0.1847,-0.09397 -0.0843,-0.05833 -0.14907,-0.136099 -0.0648,-0.08101 -0.10369,-0.174986 l 0.0583,-0.04213 v 1.007786 q 0,0.03889 -0.0292,0.06805 -0.0259,0.02916 -0.068,0.02916 -0.0421,0 -0.0713,-0.02916 -0.0259,-0.02916 -0.0259,-0.06805 v -2.112786 q 0,-0.04213 0.0259,-0.07129 0.0259,-0.02916 0.0713,-0.02916 0.0421,0 0.068,0.02916 0.0292,0.02916 0.0292,0.07129 v 0.349971 l -0.0454,-0.02592 q 0.0324,-0.100455 0.094,-0.178226 0.0648,-0.08101 0.14907,-0.1361 0.0842,-0.05833 0.1847,-0.08749 0.10046,-0.02917 0.21063,-0.02917 z m -0.0162,0.181467 q -0.17498,0 -0.30784,0.08749 -0.13286,0.08425 -0.21063,0.233314 -0.0745,0.145821 -0.0745,0.34025 0,0.191187 0.0745,0.343489 0.0778,0.152303 0.21063,0.239795 0.13286,0.08425 0.30784,0.08425 0.17175,0 0.30136,-0.08425 0.13286,-0.08749 0.21063,-0.239795 0.0778,-0.152302 0.0778,-0.343489 0,-0.191188 -0.0778,-0.34025 -0.0778,-0.149061 -0.21063,-0.233314 -0.12961,-0.08749 -0.30136,-0.08749 z m 2.55025,-0.168505 q 0.0421,0 0.068,0.02917 0.0292,0.02916 0.0292,0.07129 v 1.458211 q 0,0.03889 -0.0292,0.06805 -0.0292,0.02916 -0.068,0.02916 -0.0421,0 -0.0713,-0.02916 -0.0259,-0.02916 -0.0259,-0.06805 v -0.385616 l 0.0551,-0.02592 q 0,0.09073 -0.0519,0.184706 -0.0486,0.09397 -0.1361,0.174986 -0.0875,0.08101 -0.20739,0.132859 -0.11666,0.04861 -0.25276,0.04861 -0.22035,0 -0.39533,-0.113416 -0.17175,-0.113417 -0.2722,-0.311085 -0.0972,-0.197669 -0.0972,-0.443945 0,-0.252756 0.10046,-0.443944 0.10045,-0.194428 0.2722,-0.304604 0.17174,-0.110176 0.38885,-0.110176 0.13934,0 0.25924,0.04861 0.12314,0.04861 0.21387,0.132859 0.0907,0.08425 0.13934,0.194428 0.0519,0.106936 0.0519,0.223593 l -0.068,-0.04861 v -0.41154 q 0,-0.04213 0.0259,-0.07129 0.0292,-0.02917 0.0713,-0.02917 z m -0.67401,1.506819 q 0.17174,0 0.3046,-0.08749 0.13286,-0.09073 0.20739,-0.246276 0.0778,-0.158783 0.0778,-0.353211 0,-0.191188 -0.0778,-0.34349 -0.0745,-0.152302 -0.20739,-0.243035 -0.13286,-0.09073 -0.3046,-0.09073 -0.16851,0 -0.30461,0.08749 -0.13286,0.08749 -0.21063,0.239794 -0.0745,0.152303 -0.0745,0.349971 0,0.194428 0.0745,0.353211 0.0778,0.155543 0.21063,0.246276 0.13286,0.08749 0.30461,0.08749 z m 2.06742,-1.519781 q 0.22035,0 0.38885,0.110176 0.17175,0.106936 0.2722,0.298124 0.10046,0.187947 0.10046,0.434223 0,0.246275 -0.10046,0.437463 -0.10045,0.191188 -0.2722,0.301364 -0.17174,0.110176 -0.38561,0.110176 -0.11342,0 -0.21711,-0.0324 -0.10046,-0.03565 -0.18471,-0.09397 -0.0842,-0.05833 -0.14906,-0.136099 -0.0648,-0.08101 -0.1037,-0.174986 l 0.0583,-0.04213 v 1.007786 q 0,0.03889 -0.0292,0.06805 -0.0259,0.02916 -0.068,0.02916 -0.0421,0 -0.0713,-0.02916 -0.0259,-0.02916 -0.0259,-0.06805 v -2.112786 q 0,-0.04213 0.0259,-0.07129 0.0259,-0.02916 0.0713,-0.02916 0.0421,0 0.068,0.02916 0.0292,0.02916 0.0292,0.07129 v 0.349971 l -0.0454,-0.02592 q 0.0324,-0.100455 0.094,-0.178226 0.0648,-0.08101 0.14906,-0.1361 0.0843,-0.05833 0.18471,-0.08749 0.10045,-0.02917 0.21063,-0.02917 z m -0.0162,0.181467 q -0.17499,0 -0.30785,0.08749 -0.13286,0.08425 -0.21063,0.233314 -0.0745,0.145821 -0.0745,0.34025 0,0.191187 0.0745,0.343489 0.0778,0.152303 0.21063,0.239795 0.13286,0.08425 0.30785,0.08425 0.17174,0 0.30136,-0.08425 0.13286,-0.08749 0.21063,-0.239795 0.0778,-0.152302 0.0778,-0.343489 0,-0.191188 -0.0778,-0.34025 -0.0778,-0.149061 -0.21063,-0.233314 -0.12962,-0.08749 -0.30136,-0.08749 z m 1.94104,1.51978 q -0.24952,0 -0.4407,-0.106935 -0.19119,-0.106936 -0.29813,-0.298124 -0.10693,-0.191187 -0.10693,-0.447184 0,-0.27544 0.10693,-0.469869 0.11018,-0.194428 0.28192,-0.298123 0.17499,-0.106935 0.36942,-0.106935 0.14258,0 0.27544,0.05185 0.1361,0.04861 0.23979,0.149062 0.10694,0.09721 0.16851,0.239795 0.0648,0.14258 0.0713,0.330528 -0.003,0.03888 -0.0324,0.06805 -0.0292,0.02592 -0.068,0.02592 h -1.29943 l -0.0389,-0.174985 h 1.27674 l -0.0421,0.03889 v -0.06481 q -0.013,-0.152302 -0.0972,-0.259238 -0.0842,-0.106935 -0.20415,-0.162023 -0.11989,-0.05509 -0.24951,-0.05509 -0.0972,0 -0.20091,0.03889 -0.10046,0.03888 -0.18471,0.123137 -0.081,0.08101 -0.13286,0.210631 -0.0519,0.126378 -0.0519,0.301364 0,0.191187 0.0778,0.34673 0.0778,0.155543 0.22359,0.246276 0.14906,0.09073 0.35321,0.09073 0.11342,0 0.20415,-0.0324 0.0907,-0.03241 0.15878,-0.08425 0.068,-0.05509 0.11342,-0.113417 0.0356,-0.02916 0.0713,-0.02916 0.0324,0 0.0551,0.02592 0.0259,0.02592 0.0259,0.05833 0,0.03889 -0.0324,0.06805 -0.0972,0.116657 -0.25276,0.20415 -0.15554,0.08425 -0.34025,0.08425 z m 1.29619,-0.129619 q 0,0.03889 -0.0292,0.06805 -0.0292,0.02916 -0.068,0.02916 -0.0421,0 -0.0713,-0.02916 -0.0259,-0.02916 -0.0259,-0.06805 v -2.203519 q 0,-0.03889 0.0292,-0.06805 0.0292,-0.02916 0.068,-0.02916 0.0421,0 0.068,0.02916 0.0292,0.02916 0.0292,0.06805 z m 1.88919,-1.558666 q 0.0421,0 0.068,0.02917 0.0292,0.02916 0.0292,0.07129 v 1.458211 q 0,0.03889 -0.0292,0.06805 -0.0292,0.02916 -0.068,0.02916 -0.0421,0 -0.0713,-0.02916 -0.0259,-0.02916 -0.0259,-0.06805 v -0.385616 l 0.0551,-0.02592 q 0,0.09073 -0.0519,0.184706 -0.0486,0.09397 -0.1361,0.174986 -0.0875,0.08101 -0.20739,0.132859 -0.11666,0.04861 -0.25276,0.04861 -0.22035,0 -0.39534,-0.113416 -0.17174,-0.113417 -0.27219,-0.311085 -0.0972,-0.197669 -0.0972,-0.443945 0,-0.252756 0.10046,-0.443944 0.10045,-0.194428 0.2722,-0.304604 0.17174,-0.110176 0.38885,-0.110176 0.13934,0 0.25924,0.04861 0.12314,0.04861 0.21387,0.132859 0.0907,0.08425 0.13934,0.194428 0.0519,0.106936 0.0519,0.223593 l -0.068,-0.04861 v -0.41154 q 0,-0.04213 0.0259,-0.07129 0.0292,-0.02917 0.0713,-0.02917 z m -0.67402,1.506819 q 0.17175,0 0.30461,-0.08749 0.13286,-0.09073 0.20739,-0.246276 0.0778,-0.158783 0.0778,-0.353211 0,-0.191188 -0.0778,-0.34349 -0.0745,-0.152302 -0.20739,-0.243035 -0.13286,-0.09073 -0.30461,-0.09073 -0.1685,0 -0.3046,0.08749 -0.13286,0.08749 -0.21063,0.239794 -0.0745,0.152303 -0.0745,0.349971 0,0.194428 0.0745,0.353211 0.0778,0.155543 0.21063,0.246276 0.13286,0.08749 0.3046,0.08749 z m 1.37721,0.149061 q -0.0454,0 -0.0713,-0.02916 -0.0259,-0.02916 -0.0259,-0.06805 v -1.45173 q 0,-0.03889 0.0259,-0.06805 0.0292,-0.02916 0.0713,-0.02916 0.0421,0 0.068,0.02916 0.0292,0.02916 0.0292,0.06805 v 0.48607 l -0.0486,0.0097 q 0.01,-0.113417 0.0551,-0.223593 0.0486,-0.113416 0.12962,-0.20739 0.081,-0.09397 0.19119,-0.152302 0.11342,-0.05833 0.25276,-0.05833 0.0583,0 0.11341,0.02592 0.0551,0.02268 0.0551,0.07777 0,0.04861 -0.0259,0.07453 -0.0259,0.02592 -0.0616,0.02592 -0.0292,0 -0.0648,-0.0162 -0.0324,-0.0162 -0.0875,-0.0162 -0.0907,0 -0.18147,0.05509 -0.0907,0.05185 -0.16526,0.14258 -0.0745,0.09073 -0.1199,0.20415 -0.0421,0.110176 -0.0421,0.223592 v 0.800396 q 0,0.03889 -0.0292,0.06805 -0.0292,0.02916 -0.068,0.02916 z m 1.33831,-0.09721 q 0,0.03889 -0.0292,0.06805 -0.0292,0.02916 -0.068,0.02916 -0.0421,0 -0.0713,-0.02916 -0.0259,-0.02916 -0.0259,-0.06805 v -1.490616 q 0,-0.03888 0.0259,-0.06805 0.0292,-0.02916 0.0713,-0.02916 0.0421,0 0.068,0.02916 0.0292,0.02917 0.0292,0.06805 z m -0.0972,-1.804941 q -0.068,0 -0.1037,-0.02916 -0.0324,-0.0324 -0.0324,-0.09073 v -0.0324 q 0,-0.05833 0.0356,-0.08749 0.0389,-0.0324 0.1037,-0.0324 0.0616,0 0.094,0.0324 0.0357,0.02916 0.0357,0.08749 v 0.0324 q 0,0.05833 -0.0357,0.09073 -0.0324,0.02916 -0.0972,0.02916 z m 1.96049,0.246275 q 0.0421,0 0.068,0.02917 0.0292,0.02916 0.0292,0.07129 v 1.458211 q 0,0.03889 -0.0292,0.06805 -0.0292,0.02916 -0.068,0.02916 -0.0421,0 -0.0713,-0.02916 -0.0259,-0.02916 -0.0259,-0.06805 v -0.385616 l 0.0551,-0.02592 q 0,0.09073 -0.0519,0.184706 -0.0486,0.09397 -0.1361,0.174986 -0.0875,0.08101 -0.20739,0.132859 -0.11666,0.04861 -0.25275,0.04861 -0.22036,0 -0.39534,-0.113416 -0.17175,-0.113417 -0.2722,-0.311085 -0.0972,-0.197669 -0.0972,-0.443945 0,-0.252756 0.10046,-0.443944 0.10045,-0.194428 0.2722,-0.304604 0.17174,-0.110176 0.38885,-0.110176 0.13934,0 0.25924,0.04861 0.12314,0.04861 0.21387,0.132859 0.0907,0.08425 0.13934,0.194428 0.0519,0.106936 0.0519,0.223593 l -0.068,-0.04861 v -0.41154 q 0,-0.04213 0.0259,-0.07129 0.0292,-0.02917 0.0713,-0.02917 z m -0.67402,1.506819 q 0.17174,0 0.3046,-0.08749 0.13286,-0.09073 0.20739,-0.246276 0.0778,-0.158783 0.0778,-0.353211 0,-0.191188 -0.0778,-0.34349 -0.0745,-0.152302 -0.20739,-0.243035 -0.13286,-0.09073 -0.3046,-0.09073 -0.16851,0 -0.30461,0.08749 -0.13286,0.08749 -0.21063,0.239794 -0.0745,0.152303 -0.0745,0.349971 0,0.194428 0.0745,0.353211 0.0778,0.155543 0.21063,0.246276 0.13286,0.08749 0.30461,0.08749 z"
         id="path12"
         style="font-size:3.24047px;font-family:Quicksand;-inkscape-font-specification:'Quicksand, Normal';fill:#ffffff;fill-opacity:1;stroke-width:1.3502"
         aria-label="papelaria" />
    </g>
  </g>
</svg>
